<svg width="30" height="80" viewBox="0 0 30 80" fill="none" xmlns="http://www.w3.org/2000/svg">
<g clip-path="url(#clip0_1_2)">
<rect x="0.5" y="0.5" width="29" height="47" rx="12.5" stroke="black"/>
<rect x="13" y="12.5" width="4" height="10" rx="2" stroke="black"/>
<path d="M14.6464 80.3536C14.8417 80.5488 15.1583 80.5488 15.3536 80.3536L18.5355 77.1716C18.7308 76.9763 18.7308 76.6597 18.5355 76.4645C18.3403 76.2692 18.0237 76.2692 17.8284 76.4645L15 79.2929L12.1716 76.4645C11.9763 76.2692 11.6597 76.2692 11.4645 76.4645C11.2692 76.6597 11.2692 76.9763 11.4645 77.1716L14.6464 80.3536ZM14.5 55L14.5 80H15.5L15.5 55H14.5Z" fill="black"/>
</g>
<defs>
<clipPath id="clip0_1_2">
<rect width="30" height="80" fill="white"/>
</clipPath>
</defs>
</svg>
